<svg height="480pt" viewBox="0 0 480 480" width="480pt" xmlns="http://www.w3.org/2000/svg"><path d="m456 120h-336c-17.671875 0-32 14.328125-32 32v280c0 22.089844-17.910156 40-40 40h376c26.507812 0 48-21.492188 48-48v-288c0-8.835938-7.164062-16-16-16zm-32 296c0 4.417969-3.582031 8-8 8h-112c-4.417969 0-8-3.582031-8-8v-48c0-4.417969 3.582031-8 8-8h112c4.417969 0 8 3.582031 8 8zm0 0" fill="#ffe477"/><path d="m88 432v-280c0-17.671875 14.328125-32 32-32h304v-48c0-8.835938-7.164062-16-16-16h-170.230469c-3.445312 0-6.503906-2.203125-7.59375-5.472656l-10.527343-31.582032c-2.175782-6.539062-8.292969-10.945312-15.183594-10.945312h-164.464844c-17.671875 0-32 14.328125-32 32v392c0 22.089844 17.910156 40 40 40s40-17.910156 40-40zm0 0" fill="#ffd422"/><path d="m304 360h112c4.417969 0 8 3.582031 8 8v48c0 4.417969-3.582031 8-8 8h-112c-4.417969 0-8-3.582031-8-8v-48c0-4.417969 3.582031-8 8-8zm0 0" fill="#ff9478"/><g fill="#3e3d42"><path d="m456 112h-24v-40c0-13.253906-10.746094-24-24-24h-170.230469l-10.53125-31.59375c-3.265625-9.796875-12.4375-16.40625-22.765625-16.40625h-164.472656c-22.082031.0273438-39.9726562 17.917969-40 40v392c.0273438 26.5 21.5 47.972656 48 48h376c30.914062-.035156 55.964844-25.085938 56-56v-288c0-13.253906-10.746094-24-24-24zm-440 320v-392c0-13.253906 10.746094-24 24-24h164.472656c3.441406.003906 6.496094 2.207031 7.582032 5.472656l10.53125 31.589844c2.179687 6.535156 8.292968 10.941406 15.183593 10.9375h170.230469c4.417969 0 8 3.582031 8 8v40h-296c-22.082031.027344-39.972656 17.917969-40 40v280c0 17.671875-14.328125 32-32 32s-32-14.328125-32-32zm448-8c-.027344 22.082031-17.917969 39.972656-40 40h-340.320312c7.925781-8.773438 12.316406-20.175781 12.320312-32v-280c0-13.253906 10.746094-24 24-24h336c4.417969 0 8 3.582031 8 8zm0 0"/><path d="m416 352h-112c-8.835938 0-16 7.164062-16 16v48c0 8.835938 7.164062 16 16 16h112c8.835938 0 16-7.164062 16-16v-48c0-8.835938-7.164062-16-16-16zm0 64h-112v-48h112zm0 0"/></g></svg>